<svg xmlns="http://www.w3.org/2000/svg" version="1.1" xmlns:xlink="http://www.w3.org/1999/xlink" xmlns:svgjs="http://svgjs.com/svgjs" width="1440" height="800" preserveAspectRatio="none" viewBox="0 0 1440 800"><g mask="url(&quot;#SvgjsMask1017&quot;)" fill="none"><rect width="1440" height="800" x="0" y="0" fill="url(#SvgjsLinearGradient1018)"></rect><path d="M-69.64 530.38L-69.64 530.38" stroke="#132e65" stroke-width="1.5"></path><path d="M-69.64 530.38L58.79 546.29" stroke="#132e65" stroke-width="1.5"></path><path d="M-69.64 530.38L-89.71 694.93" stroke="#132e65" stroke-width="1.5"></path><path d="M-89.71 694.93L-89.71 694.93" stroke="#132e65" stroke-width="1.5"></path><path d="M-89.71 694.93L-53.63 860.08" stroke="#132e65" stroke-width="1.5"></path><path d="M-53.63 860.08L-53.63 860.08" stroke="#132e65" stroke-width="1.5"></path><path d="M-53.63 860.08L-97.51 971.35" stroke="#132e65" stroke-width="1.5"></path><path d="M-53.63 860.08L88.93 796.57" stroke="#132e65" stroke-width="1.5"></path><path d="M-53.63 860.08L93.85 945.24" stroke="#132e65" stroke-width="1.5"></path><path d="M-97.51 971.35L-97.51 971.35" stroke="#132e65" stroke-width="1.5"></path><path d="M-97.51 971.35L93.85 945.24" stroke="#132e65" stroke-width="1.5"></path><path d="M-97.51 971.35L88.93 796.57" stroke="#132e65" stroke-width="1.5"></path><path d="M-97.51 971.35L-89.71 694.93" stroke="#132e65" stroke-width="1.5"></path><path d="M-97.51 971.35L217.47 995.41" stroke="#132e65" stroke-width="1.5"></path><path d="M58.79 546.29L58.79 546.29" stroke="#132e65" stroke-width="1.5"></path><path d="M58.79 546.29L88.51 655.13" stroke="#132e65" stroke-width="1.5"></path><path d="M88.51 655.13L88.51 655.13" stroke="#132e65" stroke-width="1.5"></path><path d="M88.51 655.13L207.67 677.06" stroke="#132e65" stroke-width="1.5"></path><path d="M88.51 655.13L88.93 796.57" stroke="#132e65" stroke-width="1.5"></path><path d="M88.93 796.57L88.93 796.57" stroke="#132e65" stroke-width="1.5"></path><path d="M88.93 796.57L189.95 834.85" stroke="#132e65" stroke-width="1.5"></path><path d="M88.93 796.57L93.85 945.24" stroke="#132e65" stroke-width="1.5"></path><path d="M88.93 796.57L207.67 677.06" stroke="#132e65" stroke-width="1.5"></path><path d="M93.85 945.24L93.85 945.24" stroke="#132e65" stroke-width="1.5"></path><path d="M93.85 945.24L217.47 995.41" stroke="#132e65" stroke-width="1.5"></path><path d="M93.85 945.24L189.95 834.85" stroke="#132e65" stroke-width="1.5"></path><path d="M191.37 489.52L191.37 489.52" stroke="#132e65" stroke-width="1.5"></path><path d="M191.37 489.52L58.79 546.29" stroke="#132e65" stroke-width="1.5"></path><path d="M191.37 489.52L207.67 677.06" stroke="#132e65" stroke-width="1.5"></path><path d="M191.37 489.52L88.51 655.13" stroke="#132e65" stroke-width="1.5"></path><path d="M191.37 489.52L376.94 555.76" stroke="#132e65" stroke-width="1.5"></path><path d="M207.67 677.06L207.67 677.06" stroke="#132e65" stroke-width="1.5"></path><path d="M207.67 677.06L189.95 834.85" stroke="#132e65" stroke-width="1.5"></path><path d="M207.67 677.06L402.07 669.82" stroke="#132e65" stroke-width="1.5"></path><path d="M189.95 834.85L189.95 834.85" stroke="#132e65" stroke-width="1.5"></path><path d="M189.95 834.85L217.47 995.41" stroke="#132e65" stroke-width="1.5"></path><path d="M217.47 995.41L217.47 995.41" stroke="#132e65" stroke-width="1.5"></path><path d="M217.47 995.41L359.26 992.13" stroke="#132e65" stroke-width="1.5"></path><path d="M376.94 555.76L376.94 555.76" stroke="#132e65" stroke-width="1.5"></path><path d="M376.94 555.76L402.07 669.82" stroke="#132e65" stroke-width="1.5"></path><path d="M376.94 555.76L549.38 541.46" stroke="#132e65" stroke-width="1.5"></path><path d="M376.94 555.76L207.67 677.06" stroke="#132e65" stroke-width="1.5"></path><path d="M402.07 669.82L402.07 669.82" stroke="#132e65" stroke-width="1.5"></path><path d="M402.07 669.82L549.87 687.45" stroke="#132e65" stroke-width="1.5"></path><path d="M359.26 992.13L359.26 992.13" stroke="#132e65" stroke-width="1.5"></path><path d="M359.26 992.13L532.03 984.22" stroke="#132e65" stroke-width="1.5"></path><path d="M359.26 992.13L189.95 834.85" stroke="#132e65" stroke-width="1.5"></path><path d="M549.38 541.46L549.38 541.46" stroke="#132e65" stroke-width="1.5"></path><path d="M549.38 541.46L669.21 553.8" stroke="#132e65" stroke-width="1.5"></path><path d="M549.38 541.46L549.87 687.45" stroke="#132e65" stroke-width="1.5"></path><path d="M549.87 687.45L549.87 687.45" stroke="#132e65" stroke-width="1.5"></path><path d="M532.03 984.22L532.03 984.22" stroke="#132e65" stroke-width="1.5"></path><path d="M532.03 984.22L705.72 954.16" stroke="#132e65" stroke-width="1.5"></path><path d="M532.03 984.22L655.52 804" stroke="#132e65" stroke-width="1.5"></path><path d="M532.03 984.22L798.12 995.49" stroke="#132e65" stroke-width="1.5"></path><path d="M695.2 410.38L695.2 410.38" stroke="#132e65" stroke-width="1.5"></path><path d="M695.2 410.38L791.14 337.76" stroke="#132e65" stroke-width="1.5"></path><path d="M695.2 410.38L816.31 487.88" stroke="#132e65" stroke-width="1.5"></path><path d="M669.21 553.8L669.21 553.8" stroke="#132e65" stroke-width="1.5"></path><path d="M669.21 553.8L701.23 695.26" stroke="#132e65" stroke-width="1.5"></path><path d="M669.21 553.8L695.2 410.38" stroke="#132e65" stroke-width="1.5"></path><path d="M669.21 553.8L816.31 487.88" stroke="#132e65" stroke-width="1.5"></path><path d="M669.21 553.8L549.87 687.45" stroke="#132e65" stroke-width="1.5"></path><path d="M701.23 695.26L701.23 695.26" stroke="#132e65" stroke-width="1.5"></path><path d="M701.23 695.26L655.52 804" stroke="#132e65" stroke-width="1.5"></path><path d="M701.23 695.26L549.87 687.45" stroke="#132e65" stroke-width="1.5"></path><path d="M701.23 695.26L862.24 831.48" stroke="#132e65" stroke-width="1.5"></path><path d="M701.23 695.26L549.38 541.46" stroke="#132e65" stroke-width="1.5"></path><path d="M655.52 804L655.52 804" stroke="#132e65" stroke-width="1.5"></path><path d="M655.52 804L549.87 687.45" stroke="#132e65" stroke-width="1.5"></path><path d="M655.52 804L705.72 954.16" stroke="#132e65" stroke-width="1.5"></path><path d="M655.52 804L862.24 831.48" stroke="#132e65" stroke-width="1.5"></path><path d="M655.52 804L798.12 995.49" stroke="#132e65" stroke-width="1.5"></path><path d="M705.72 954.16L705.72 954.16" stroke="#132e65" stroke-width="1.5"></path><path d="M705.72 954.16L798.12 995.49" stroke="#132e65" stroke-width="1.5"></path><path d="M705.72 954.16L862.24 831.48" stroke="#132e65" stroke-width="1.5"></path><path d="M705.72 954.16L701.23 695.26" stroke="#132e65" stroke-width="1.5"></path><path d="M826.92 199.89L826.92 199.89" stroke="#132e65" stroke-width="1.5"></path><path d="M826.92 199.89L940.55 194.38" stroke="#132e65" stroke-width="1.5"></path><path d="M826.92 199.89L791.14 337.76" stroke="#132e65" stroke-width="1.5"></path><path d="M826.92 199.89L968.39 59.02" stroke="#132e65" stroke-width="1.5"></path><path d="M826.92 199.89L996.71 371.32" stroke="#132e65" stroke-width="1.5"></path><path d="M791.14 337.76L791.14 337.76" stroke="#132e65" stroke-width="1.5"></path><path d="M791.14 337.76L816.31 487.88" stroke="#132e65" stroke-width="1.5"></path><path d="M791.14 337.76L940.55 194.38" stroke="#132e65" stroke-width="1.5"></path><path d="M791.14 337.76L996.71 371.32" stroke="#132e65" stroke-width="1.5"></path><path d="M791.14 337.76L669.21 553.8" stroke="#132e65" stroke-width="1.5"></path><path d="M816.31 487.88L816.31 487.88" stroke="#132e65" stroke-width="1.5"></path><path d="M862.24 831.48L862.24 831.48" stroke="#132e65" stroke-width="1.5"></path><path d="M862.24 831.48L998.79 799.8" stroke="#132e65" stroke-width="1.5"></path><path d="M862.24 831.48L798.12 995.49" stroke="#132e65" stroke-width="1.5"></path><path d="M862.24 831.48L947.71 652.03" stroke="#132e65" stroke-width="1.5"></path><path d="M862.24 831.48L1012.18 979.71" stroke="#132e65" stroke-width="1.5"></path><path d="M798.12 995.49L798.12 995.49" stroke="#132e65" stroke-width="1.5"></path><path d="M798.12 995.49L1012.18 979.71" stroke="#132e65" stroke-width="1.5"></path><path d="M1002.74 -39.55L1002.74 -39.55" stroke="#132e65" stroke-width="1.5"></path><path d="M1002.74 -39.55L968.39 59.02" stroke="#132e65" stroke-width="1.5"></path><path d="M1002.74 -39.55L1104.98 -101.62" stroke="#132e65" stroke-width="1.5"></path><path d="M1002.74 -39.55L1156.84 44.68" stroke="#132e65" stroke-width="1.5"></path><path d="M1002.74 -39.55L940.55 194.38" stroke="#132e65" stroke-width="1.5"></path><path d="M1002.74 -39.55L1252.67 -48.18" stroke="#132e65" stroke-width="1.5"></path><path d="M968.39 59.02L968.39 59.02" stroke="#132e65" stroke-width="1.5"></path><path d="M968.39 59.02L940.55 194.38" stroke="#132e65" stroke-width="1.5"></path><path d="M968.39 59.02L1156.84 44.68" stroke="#132e65" stroke-width="1.5"></path><path d="M968.39 59.02L1104.98 -101.62" stroke="#132e65" stroke-width="1.5"></path><path d="M968.39 59.02L1117.94 249.84" stroke="#132e65" stroke-width="1.5"></path><path d="M940.55 194.38L940.55 194.38" stroke="#132e65" stroke-width="1.5"></path><path d="M940.55 194.38L996.71 371.32" stroke="#132e65" stroke-width="1.5"></path><path d="M940.55 194.38L1117.94 249.84" stroke="#132e65" stroke-width="1.5"></path><path d="M996.71 371.32L996.71 371.32" stroke="#132e65" stroke-width="1.5"></path><path d="M996.71 371.32L989.92 510.58" stroke="#132e65" stroke-width="1.5"></path><path d="M989.92 510.58L989.92 510.58" stroke="#132e65" stroke-width="1.5"></path><path d="M989.92 510.58L1101.7 498.06" stroke="#132e65" stroke-width="1.5"></path><path d="M989.92 510.58L947.71 652.03" stroke="#132e65" stroke-width="1.5"></path><path d="M989.92 510.58L816.31 487.88" stroke="#132e65" stroke-width="1.5"></path><path d="M989.92 510.58L791.14 337.76" stroke="#132e65" stroke-width="1.5"></path><path d="M989.92 510.58L1255.66 406.89" stroke="#132e65" stroke-width="1.5"></path><path d="M947.71 652.03L947.71 652.03" stroke="#132e65" stroke-width="1.5"></path><path d="M947.71 652.03L998.79 799.8" stroke="#132e65" stroke-width="1.5"></path><path d="M947.71 652.03L816.31 487.88" stroke="#132e65" stroke-width="1.5"></path><path d="M998.79 799.8L998.79 799.8" stroke="#132e65" stroke-width="1.5"></path><path d="M998.79 799.8L1107.26 840.24" stroke="#132e65" stroke-width="1.5"></path><path d="M998.79 799.8L1012.18 979.71" stroke="#132e65" stroke-width="1.5"></path><path d="M1012.18 979.71L1012.18 979.71" stroke="#132e65" stroke-width="1.5"></path><path d="M1012.18 979.71L1150.37 974.21" stroke="#132e65" stroke-width="1.5"></path><path d="M1012.18 979.71L1107.26 840.24" stroke="#132e65" stroke-width="1.5"></path><path d="M1104.98 -101.62L1104.98 -101.62" stroke="#132e65" stroke-width="1.5"></path><path d="M1104.98 -101.62L1156.84 44.68" stroke="#132e65" stroke-width="1.5"></path><path d="M1104.98 -101.62L1252.67 -48.18" stroke="#132e65" stroke-width="1.5"></path><path d="M1156.84 44.68L1156.84 44.68" stroke="#132e65" stroke-width="1.5"></path><path d="M1156.84 44.68L1252.67 -48.18" stroke="#132e65" stroke-width="1.5"></path><path d="M1156.84 44.68L1311.42 96.25" stroke="#132e65" stroke-width="1.5"></path><path d="M1117.94 249.84L1117.94 249.84" stroke="#132e65" stroke-width="1.5"></path><path d="M1117.94 249.84L1251.43 205.98" stroke="#132e65" stroke-width="1.5"></path><path d="M1117.94 249.84L996.71 371.32" stroke="#132e65" stroke-width="1.5"></path><path d="M1101.7 498.06L1101.7 498.06" stroke="#132e65" stroke-width="1.5"></path><path d="M1101.7 498.06L996.71 371.32" stroke="#132e65" stroke-width="1.5"></path><path d="M1101.7 498.06L1255.66 406.89" stroke="#132e65" stroke-width="1.5"></path><path d="M1101.7 498.06L1310.7 503.74" stroke="#132e65" stroke-width="1.5"></path><path d="M1101.7 498.06L947.71 652.03" stroke="#132e65" stroke-width="1.5"></path><path d="M1101.7 498.06L1117.94 249.84" stroke="#132e65" stroke-width="1.5"></path><path d="M1107.26 840.24L1107.26 840.24" stroke="#132e65" stroke-width="1.5"></path><path d="M1107.26 840.24L1150.37 974.21" stroke="#132e65" stroke-width="1.5"></path><path d="M1107.26 840.24L1303.7 822.71" stroke="#132e65" stroke-width="1.5"></path><path d="M1107.26 840.24L1238.92 996.94" stroke="#132e65" stroke-width="1.5"></path><path d="M1150.37 974.21L1150.37 974.21" stroke="#132e65" stroke-width="1.5"></path><path d="M1150.37 974.21L1238.92 996.94" stroke="#132e65" stroke-width="1.5"></path><path d="M1252.67 -48.18L1252.67 -48.18" stroke="#132e65" stroke-width="1.5"></path><path d="M1252.67 -48.18L1311.42 96.25" stroke="#132e65" stroke-width="1.5"></path><path d="M1252.67 -48.18L1417.13 -62.88" stroke="#132e65" stroke-width="1.5"></path><path d="M1252.67 -48.18L1408 111.15" stroke="#132e65" stroke-width="1.5"></path><path d="M1311.42 96.25L1311.42 96.25" stroke="#132e65" stroke-width="1.5"></path><path d="M1311.42 96.25L1408 111.15" stroke="#132e65" stroke-width="1.5"></path><path d="M1311.42 96.25L1251.43 205.98" stroke="#132e65" stroke-width="1.5"></path><path d="M1311.42 96.25L1418.78 189.94" stroke="#132e65" stroke-width="1.5"></path><path d="M1251.43 205.98L1251.43 205.98" stroke="#132e65" stroke-width="1.5"></path><path d="M1251.43 205.98L1418.78 189.94" stroke="#132e65" stroke-width="1.5"></path><path d="M1251.43 205.98L1408 111.15" stroke="#132e65" stroke-width="1.5"></path><path d="M1251.43 205.98L1156.84 44.68" stroke="#132e65" stroke-width="1.5"></path><path d="M1255.66 406.89L1255.66 406.89" stroke="#132e65" stroke-width="1.5"></path><path d="M1255.66 406.89L1310.7 503.74" stroke="#132e65" stroke-width="1.5"></path><path d="M1255.66 406.89L1423 360.18" stroke="#132e65" stroke-width="1.5"></path><path d="M1310.7 503.74L1310.7 503.74" stroke="#132e65" stroke-width="1.5"></path><path d="M1310.7 503.74L1451.77 555.29" stroke="#132e65" stroke-width="1.5"></path><path d="M1310.7 503.74L1423 360.18" stroke="#132e65" stroke-width="1.5"></path><path d="M1310.7 503.74L1267.34 707.75" stroke="#132e65" stroke-width="1.5"></path><path d="M1267.34 707.75L1267.34 707.75" stroke="#132e65" stroke-width="1.5"></path><path d="M1267.34 707.75L1303.7 822.71" stroke="#132e65" stroke-width="1.5"></path><path d="M1267.34 707.75L1415.37 822.39" stroke="#132e65" stroke-width="1.5"></path><path d="M1267.34 707.75L1461.75 657.48" stroke="#132e65" stroke-width="1.5"></path><path d="M1267.34 707.75L1107.26 840.24" stroke="#132e65" stroke-width="1.5"></path><path d="M1303.7 822.71L1303.7 822.71" stroke="#132e65" stroke-width="1.5"></path><path d="M1303.7 822.71L1415.37 822.39" stroke="#132e65" stroke-width="1.5"></path><path d="M1303.7 822.71L1412.3 962.14" stroke="#132e65" stroke-width="1.5"></path><path d="M1303.7 822.71L1238.92 996.94" stroke="#132e65" stroke-width="1.5"></path><path d="M1238.92 996.94L1238.92 996.94" stroke="#132e65" stroke-width="1.5"></path><path d="M1238.92 996.94L1412.3 962.14" stroke="#132e65" stroke-width="1.5"></path><path d="M1238.92 996.94L1012.18 979.71" stroke="#132e65" stroke-width="1.5"></path><path d="M1238.92 996.94L1415.37 822.39" stroke="#132e65" stroke-width="1.5"></path><path d="M1417.13 -62.88L1417.13 -62.88" stroke="#132e65" stroke-width="1.5"></path><path d="M1417.13 -62.88L1408 111.15" stroke="#132e65" stroke-width="1.5"></path><path d="M1417.13 -62.88L1593.25 -86.97" stroke="#132e65" stroke-width="1.5"></path><path d="M1408 111.15L1408 111.15" stroke="#132e65" stroke-width="1.5"></path><path d="M1408 111.15L1418.78 189.94" stroke="#132e65" stroke-width="1.5"></path><path d="M1408 111.15L1556.82 65.23" stroke="#132e65" stroke-width="1.5"></path><path d="M1418.78 189.94L1418.78 189.94" stroke="#132e65" stroke-width="1.5"></path><path d="M1418.78 189.94L1423 360.18" stroke="#132e65" stroke-width="1.5"></path><path d="M1423 360.18L1423 360.18" stroke="#132e65" stroke-width="1.5"></path><path d="M1423 360.18L1538.93 411.01" stroke="#132e65" stroke-width="1.5"></path><path d="M1451.77 555.29L1451.77 555.29" stroke="#132e65" stroke-width="1.5"></path><path d="M1451.77 555.29L1541.74 527.39" stroke="#132e65" stroke-width="1.5"></path><path d="M1451.77 555.29L1461.75 657.48" stroke="#132e65" stroke-width="1.5"></path><path d="M1461.75 657.48L1461.75 657.48" stroke="#132e65" stroke-width="1.5"></path><path d="M1461.75 657.48L1612.41 668.52" stroke="#132e65" stroke-width="1.5"></path><path d="M1461.75 657.48L1541.74 527.39" stroke="#132e65" stroke-width="1.5"></path><path d="M1461.75 657.48L1415.37 822.39" stroke="#132e65" stroke-width="1.5"></path><path d="M1415.37 822.39L1415.37 822.39" stroke="#132e65" stroke-width="1.5"></path><path d="M1415.37 822.39L1412.3 962.14" stroke="#132e65" stroke-width="1.5"></path><path d="M1415.37 822.39L1578.07 837.64" stroke="#132e65" stroke-width="1.5"></path><path d="M1412.3 962.14L1412.3 962.14" stroke="#132e65" stroke-width="1.5"></path><path d="M1412.3 962.14L1611.38 945.43" stroke="#132e65" stroke-width="1.5"></path><path d="M1412.3 962.14L1578.07 837.64" stroke="#132e65" stroke-width="1.5"></path><path d="M1412.3 962.14L1150.37 974.21" stroke="#132e65" stroke-width="1.5"></path><path d="M1593.25 -86.97L1593.25 -86.97" stroke="#132e65" stroke-width="1.5"></path><path d="M1593.25 -86.97L1556.82 65.23" stroke="#132e65" stroke-width="1.5"></path><path d="M1593.25 -86.97L1408 111.15" stroke="#132e65" stroke-width="1.5"></path><path d="M1593.25 -86.97L1597.15 232.43" stroke="#132e65" stroke-width="1.5"></path><path d="M1593.25 -86.97L1418.78 189.94" stroke="#132e65" stroke-width="1.5"></path><path d="M1556.82 65.23L1556.82 65.23" stroke="#132e65" stroke-width="1.5"></path><path d="M1556.82 65.23L1597.15 232.43" stroke="#132e65" stroke-width="1.5"></path><path d="M1556.82 65.23L1418.78 189.94" stroke="#132e65" stroke-width="1.5"></path><path d="M1597.15 232.43L1597.15 232.43" stroke="#132e65" stroke-width="1.5"></path><path d="M1597.15 232.43L1418.78 189.94" stroke="#132e65" stroke-width="1.5"></path><path d="M1597.15 232.43L1538.93 411.01" stroke="#132e65" stroke-width="1.5"></path><path d="M1597.15 232.43L1423 360.18" stroke="#132e65" stroke-width="1.5"></path><path d="M1597.15 232.43L1408 111.15" stroke="#132e65" stroke-width="1.5"></path><path d="M1597.15 232.43L1541.74 527.39" stroke="#132e65" stroke-width="1.5"></path><path d="M1538.93 411.01L1538.93 411.01" stroke="#132e65" stroke-width="1.5"></path><path d="M1538.93 411.01L1541.74 527.39" stroke="#132e65" stroke-width="1.5"></path><path d="M1538.93 411.01L1451.77 555.29" stroke="#132e65" stroke-width="1.5"></path><path d="M1541.74 527.39L1541.74 527.39" stroke="#132e65" stroke-width="1.5"></path><path d="M1612.41 668.52L1612.41 668.52" stroke="#132e65" stroke-width="1.5"></path><path d="M1612.41 668.52L1541.74 527.39" stroke="#132e65" stroke-width="1.5"></path><path d="M1578.07 837.64L1578.07 837.64" stroke="#132e65" stroke-width="1.5"></path><path d="M1578.07 837.64L1611.38 945.43" stroke="#132e65" stroke-width="1.5"></path><path d="M1578.07 837.64L1612.41 668.52" stroke="#132e65" stroke-width="1.5"></path><path d="M1611.38 945.43L1611.38 945.43" stroke="#132e65" stroke-width="1.5"></path><path d="M1611.38 945.43L1415.37 822.39" stroke="#132e65" stroke-width="1.5"></path><path d="M1611.38 945.43L1612.41 668.52" stroke="#132e65" stroke-width="1.5"></path><path d="M1611.38 945.43L1461.75 657.48" stroke="#132e65" stroke-width="1.5"></path><circle r="5" cx="-69.64" cy="530.38" fill="#132e65"></circle><circle r="5" cx="-89.71" cy="694.93" fill="#132e65"></circle><circle r="5" cx="-53.63" cy="860.08" fill="#132e65"></circle><circle r="5" cx="-97.51" cy="971.35" fill="#132e65"></circle><circle r="5" cx="58.79" cy="546.29" fill="#132e65"></circle><circle r="5" cx="88.51" cy="655.13" fill="#132e65"></circle><circle r="5" cx="88.93" cy="796.57" fill="#132e65"></circle><circle r="5" cx="93.85" cy="945.24" fill="#132e65"></circle><circle r="5" cx="191.37" cy="489.52" fill="#132e65"></circle><circle r="5" cx="207.67" cy="677.06" fill="#132e65"></circle><circle r="5" cx="189.95" cy="834.85" fill="#132e65"></circle><circle r="5" cx="217.47" cy="995.41" fill="#132e65"></circle><circle r="5" cx="376.94" cy="555.76" fill="#132e65"></circle><circle r="5" cx="402.07" cy="669.82" fill="#132e65"></circle><circle r="5" cx="359.26" cy="992.13" fill="#132e65"></circle><circle r="5" cx="549.38" cy="541.46" fill="#132e65"></circle><circle r="5" cx="549.87" cy="687.45" fill="#132e65"></circle><circle r="5" cx="532.03" cy="984.22" fill="#132e65"></circle><circle r="5" cx="695.2" cy="410.38" fill="#132e65"></circle><circle r="5" cx="669.21" cy="553.8" fill="#132e65"></circle><circle r="5" cx="701.23" cy="695.26" fill="#132e65"></circle><circle r="5" cx="655.52" cy="804" fill="#132e65"></circle><circle r="5" cx="705.72" cy="954.16" fill="#132e65"></circle><circle r="5" cx="826.92" cy="199.89" fill="#132e65"></circle><circle r="5" cx="791.14" cy="337.76" fill="#132e65"></circle><circle r="5" cx="816.31" cy="487.88" fill="#132e65"></circle><circle r="5" cx="862.24" cy="831.48" fill="#132e65"></circle><circle r="5" cx="798.12" cy="995.49" fill="#132e65"></circle><circle r="5" cx="1002.74" cy="-39.55" fill="#132e65"></circle><circle r="5" cx="968.39" cy="59.02" fill="#132e65"></circle><circle r="5" cx="940.55" cy="194.38" fill="#132e65"></circle><circle r="5" cx="996.71" cy="371.32" fill="#132e65"></circle><circle r="5" cx="989.92" cy="510.58" fill="#132e65"></circle><circle r="5" cx="947.71" cy="652.03" fill="#132e65"></circle><circle r="5" cx="998.79" cy="799.8" fill="#132e65"></circle><circle r="5" cx="1012.18" cy="979.71" fill="#132e65"></circle><circle r="5" cx="1104.98" cy="-101.62" fill="#132e65"></circle><circle r="5" cx="1156.84" cy="44.68" fill="#132e65"></circle><circle r="5" cx="1117.94" cy="249.84" fill="#132e65"></circle><circle r="5" cx="1101.7" cy="498.06" fill="#132e65"></circle><circle r="5" cx="1107.26" cy="840.24" fill="#132e65"></circle><circle r="5" cx="1150.37" cy="974.21" fill="#132e65"></circle><circle r="5" cx="1252.67" cy="-48.18" fill="#132e65"></circle><circle r="5" cx="1311.42" cy="96.25" fill="#132e65"></circle><circle r="5" cx="1251.43" cy="205.98" fill="#132e65"></circle><circle r="5" cx="1255.66" cy="406.89" fill="#132e65"></circle><circle r="5" cx="1310.7" cy="503.74" fill="#132e65"></circle><circle r="5" cx="1267.34" cy="707.75" fill="#132e65"></circle><circle r="5" cx="1303.7" cy="822.71" fill="#132e65"></circle><circle r="5" cx="1238.92" cy="996.94" fill="#132e65"></circle><circle r="5" cx="1417.13" cy="-62.88" fill="#132e65"></circle><circle r="5" cx="1408" cy="111.15" fill="#132e65"></circle><circle r="5" cx="1418.78" cy="189.94" fill="#132e65"></circle><circle r="5" cx="1423" cy="360.18" fill="#132e65"></circle><circle r="5" cx="1451.77" cy="555.29" fill="#132e65"></circle><circle r="5" cx="1461.75" cy="657.48" fill="#132e65"></circle><circle r="5" cx="1415.37" cy="822.39" fill="#132e65"></circle><circle r="5" cx="1412.3" cy="962.14" fill="#132e65"></circle><circle r="5" cx="1593.25" cy="-86.97" fill="#132e65"></circle><circle r="5" cx="1556.82" cy="65.23" fill="#132e65"></circle><circle r="5" cx="1597.15" cy="232.43" fill="#132e65"></circle><circle r="5" cx="1538.93" cy="411.01" fill="#132e65"></circle><circle r="5" cx="1541.74" cy="527.39" fill="#132e65"></circle><circle r="5" cx="1612.41" cy="668.52" fill="#132e65"></circle><circle r="5" cx="1578.07" cy="837.64" fill="#132e65"></circle><circle r="5" cx="1611.38" cy="945.43" fill="#132e65"></circle><path d="M858.04 799.57L858.04 799.57" stroke="hsl(228.5, 77.2%, 51.5%)" stroke-width="1.5"></path><path d="M858.04 799.57L1006.06 790.87" stroke="hsl(228.5, 77.2%, 51.5%)" stroke-width="1.5"></path><path d="M858.04 799.57L851.71 642.3" stroke="hsl(228.5, 77.2%, 51.5%)" stroke-width="1.5"></path><path d="M858.04 799.57L683.54 830.17" stroke="hsl(228.5, 77.2%, 51.5%)" stroke-width="1.5"></path><path d="M858.04 799.57L986 648.07" stroke="hsl(228.5, 77.2%, 51.5%)" stroke-width="1.5"></path><path d="M1006.06 790.87L1006.06 790.87" stroke="hsl(228.5, 77.2%, 51.5%)" stroke-width="1.5"></path><path d="M1006.06 790.87L1133.2 845.8" stroke="hsl(228.5, 77.2%, 51.5%)" stroke-width="1.5"></path><path d="M1006.06 790.87L986 648.07" stroke="hsl(228.5, 77.2%, 51.5%)" stroke-width="1.5"></path><path d="M950.74 998.51L950.74 998.51" stroke="hsl(228.5, 77.2%, 51.5%)" stroke-width="1.5"></path><path d="M950.74 998.51L1107.71 969.64" stroke="hsl(228.5, 77.2%, 51.5%)" stroke-width="1.5"></path><path d="M950.74 998.51L788.48 1003.31" stroke="hsl(228.5, 77.2%, 51.5%)" stroke-width="1.5"></path><path d="M950.74 998.51L1006.06 790.87" stroke="hsl(228.5, 77.2%, 51.5%)" stroke-width="1.5"></path><path d="M950.74 998.51L858.04 799.57" stroke="hsl(228.5, 77.2%, 51.5%)" stroke-width="1.5"></path><path d="M950.74 998.51L1133.2 845.8" stroke="hsl(228.5, 77.2%, 51.5%)" stroke-width="1.5"></path><path d="M1133.2 845.8L1133.2 845.8" stroke="hsl(228.5, 77.2%, 51.5%)" stroke-width="1.5"></path><path d="M1133.2 845.8L1107.71 969.64" stroke="hsl(228.5, 77.2%, 51.5%)" stroke-width="1.5"></path><path d="M1133.2 845.8L1270.84 796.14" stroke="hsl(228.5, 77.2%, 51.5%)" stroke-width="1.5"></path><path d="M1133.2 845.8L1285.23 950.42" stroke="hsl(228.5, 77.2%, 51.5%)" stroke-width="1.5"></path><path d="M1133.2 845.8L1143.47 637.81" stroke="hsl(228.5, 77.2%, 51.5%)" stroke-width="1.5"></path><path d="M1133.2 845.8L1253.63 672.85" stroke="hsl(228.5, 77.2%, 51.5%)" stroke-width="1.5"></path><path d="M1299.52 111.29L1299.52 111.29" stroke="hsl(228.5, 77.2%, 51.5%)" stroke-width="1.5"></path><path d="M1299.52 111.29L1252.6 235.99" stroke="hsl(228.5, 77.2%, 51.5%)" stroke-width="1.5"></path><path d="M1299.52 111.29L1416.34 204.06" stroke="hsl(228.5, 77.2%, 51.5%)" stroke-width="1.5"></path><path d="M1299.52 111.29L1461.53 104.17" stroke="hsl(228.5, 77.2%, 51.5%)" stroke-width="1.5"></path><path d="M1253.63 672.85L1253.63 672.85" stroke="hsl(228.5, 77.2%, 51.5%)" stroke-width="1.5"></path><path d="M1253.63 672.85L1143.47 637.81" stroke="hsl(228.5, 77.2%, 51.5%)" stroke-width="1.5"></path><path d="M1253.63 672.85L1270.84 796.14" stroke="hsl(228.5, 77.2%, 51.5%)" stroke-width="1.5"></path><path d="M1253.63 672.85L1426.1 696.98" stroke="hsl(228.5, 77.2%, 51.5%)" stroke-width="1.5"></path><path d="M1253.63 672.85L1280.73 500.78" stroke="hsl(228.5, 77.2%, 51.5%)" stroke-width="1.5"></path><path d="M1253.63 672.85L1097.98 541.67" stroke="hsl(228.5, 77.2%, 51.5%)" stroke-width="1.5"></path><path d="M1285.23 950.42L1285.23 950.42" stroke="hsl(228.5, 77.2%, 51.5%)" stroke-width="1.5"></path><path d="M1285.23 950.42L1391.29 947.53" stroke="hsl(228.5, 77.2%, 51.5%)" stroke-width="1.5"></path><path d="M1285.23 950.42L1270.84 796.14" stroke="hsl(228.5, 77.2%, 51.5%)" stroke-width="1.5"></path><path d="M1391.29 947.53L1391.29 947.53" stroke="hsl(228.5, 77.2%, 51.5%)" stroke-width="1.5"></path><path d="M1391.29 947.53L1423.65 826.08" stroke="hsl(228.5, 77.2%, 51.5%)" stroke-width="1.5"></path><path d="M1391.29 947.53L1579.56 947.48" stroke="hsl(228.5, 77.2%, 51.5%)" stroke-width="1.5"></path><path d="M1391.29 947.53L1270.84 796.14" stroke="hsl(228.5, 77.2%, 51.5%)" stroke-width="1.5"></path><path d="M1591.04 237.77L1591.04 237.77" stroke="hsl(228.5, 77.2%, 51.5%)" stroke-width="1.5"></path><path d="M1591.04 237.77L1580.58 107.77" stroke="hsl(228.5, 77.2%, 51.5%)" stroke-width="1.5"></path><path d="M1591.04 237.77L1597.45 409.29" stroke="hsl(228.5, 77.2%, 51.5%)" stroke-width="1.5"></path><path d="M-98.16 690.47L-98.16 690.47" stroke="hsl(228.5, 77.2%, 51.5%)" stroke-width="1.5"></path><path d="M-98.16 690.47L-103.15 803.69" stroke="hsl(228.5, 77.2%, 51.5%)" stroke-width="1.5"></path><path d="M-98.16 690.47L88.68 861.6" stroke="hsl(228.5, 77.2%, 51.5%)" stroke-width="1.5"></path><path d="M-98.16 690.47L-93.57 956.53" stroke="hsl(228.5, 77.2%, 51.5%)" stroke-width="1.5"></path><path d="M-103.15 803.69L-103.15 803.69" stroke="hsl(228.5, 77.2%, 51.5%)" stroke-width="1.5"></path><path d="M-103.15 803.69L-93.57 956.53" stroke="hsl(228.5, 77.2%, 51.5%)" stroke-width="1.5"></path><path d="M-103.15 803.69L88.68 861.6" stroke="hsl(228.5, 77.2%, 51.5%)" stroke-width="1.5"></path><path d="M-103.15 803.69L99.01 942.13" stroke="hsl(228.5, 77.2%, 51.5%)" stroke-width="1.5"></path><path d="M-93.57 956.53L-93.57 956.53" stroke="hsl(228.5, 77.2%, 51.5%)" stroke-width="1.5"></path><path d="M-93.57 956.53L99.01 942.13" stroke="hsl(228.5, 77.2%, 51.5%)" stroke-width="1.5"></path><path d="M88.68 861.6L88.68 861.6" stroke="hsl(228.5, 77.2%, 51.5%)" stroke-width="1.5"></path><path d="M88.68 861.6L99.01 942.13" stroke="hsl(228.5, 77.2%, 51.5%)" stroke-width="1.5"></path><path d="M88.68 861.6L251.72 833.32" stroke="hsl(228.5, 77.2%, 51.5%)" stroke-width="1.5"></path><path d="M88.68 861.6L227.36 977.79" stroke="hsl(228.5, 77.2%, 51.5%)" stroke-width="1.5"></path><path d="M99.01 942.13L99.01 942.13" stroke="hsl(228.5, 77.2%, 51.5%)" stroke-width="1.5"></path><path d="M99.01 942.13L227.36 977.79" stroke="hsl(228.5, 77.2%, 51.5%)" stroke-width="1.5"></path><path d="M99.01 942.13L251.72 833.32" stroke="hsl(228.5, 77.2%, 51.5%)" stroke-width="1.5"></path><path d="M192.4 664.91L192.4 664.91" stroke="hsl(228.5, 77.2%, 51.5%)" stroke-width="1.5"></path><path d="M192.4 664.91L251.72 833.32" stroke="hsl(228.5, 77.2%, 51.5%)" stroke-width="1.5"></path><path d="M192.4 664.91L395.3 666.17" stroke="hsl(228.5, 77.2%, 51.5%)" stroke-width="1.5"></path><path d="M192.4 664.91L88.68 861.6" stroke="hsl(228.5, 77.2%, 51.5%)" stroke-width="1.5"></path><path d="M192.4 664.91L-98.16 690.47" stroke="hsl(228.5, 77.2%, 51.5%)" stroke-width="1.5"></path><path d="M251.72 833.32L251.72 833.32" stroke="hsl(228.5, 77.2%, 51.5%)" stroke-width="1.5"></path><path d="M251.72 833.32L227.36 977.79" stroke="hsl(228.5, 77.2%, 51.5%)" stroke-width="1.5"></path><path d="M227.36 977.79L227.36 977.79" stroke="hsl(228.5, 77.2%, 51.5%)" stroke-width="1.5"></path><path d="M227.36 977.79L361.93 989.11" stroke="hsl(228.5, 77.2%, 51.5%)" stroke-width="1.5"></path><path d="M395.3 666.17L395.3 666.17" stroke="hsl(228.5, 77.2%, 51.5%)" stroke-width="1.5"></path><path d="M395.3 666.17L554.1 689.81" stroke="hsl(228.5, 77.2%, 51.5%)" stroke-width="1.5"></path><path d="M395.3 666.17L490.67 820.47" stroke="hsl(228.5, 77.2%, 51.5%)" stroke-width="1.5"></path><path d="M361.93 989.11L361.93 989.11" stroke="hsl(228.5, 77.2%, 51.5%)" stroke-width="1.5"></path><path d="M361.93 989.11L499.49 999.09" stroke="hsl(228.5, 77.2%, 51.5%)" stroke-width="1.5"></path><path d="M361.93 989.11L251.72 833.32" stroke="hsl(228.5, 77.2%, 51.5%)" stroke-width="1.5"></path><path d="M361.93 989.11L490.67 820.47" stroke="hsl(228.5, 77.2%, 51.5%)" stroke-width="1.5"></path><path d="M554.1 689.81L554.1 689.81" stroke="hsl(228.5, 77.2%, 51.5%)" stroke-width="1.5"></path><path d="M554.1 689.81L668.98 702.42" stroke="hsl(228.5, 77.2%, 51.5%)" stroke-width="1.5"></path><path d="M554.1 689.81L490.67 820.47" stroke="hsl(228.5, 77.2%, 51.5%)" stroke-width="1.5"></path><path d="M554.1 689.81L683.54 830.17" stroke="hsl(228.5, 77.2%, 51.5%)" stroke-width="1.5"></path><path d="M490.67 820.47L490.67 820.47" stroke="hsl(228.5, 77.2%, 51.5%)" stroke-width="1.5"></path><path d="M490.67 820.47L499.49 999.09" stroke="hsl(228.5, 77.2%, 51.5%)" stroke-width="1.5"></path><path d="M499.49 999.09L499.49 999.09" stroke="hsl(228.5, 77.2%, 51.5%)" stroke-width="1.5"></path><path d="M499.49 999.09L676.19 940.22" stroke="hsl(228.5, 77.2%, 51.5%)" stroke-width="1.5"></path><path d="M499.49 999.09L683.54 830.17" stroke="hsl(228.5, 77.2%, 51.5%)" stroke-width="1.5"></path><path d="M499.49 999.09L227.36 977.79" stroke="hsl(228.5, 77.2%, 51.5%)" stroke-width="1.5"></path><path d="M499.49 999.09L788.48 1003.31" stroke="hsl(228.5, 77.2%, 51.5%)" stroke-width="1.5"></path><path d="M668.98 702.42L668.98 702.42" stroke="hsl(228.5, 77.2%, 51.5%)" stroke-width="1.5"></path><path d="M668.98 702.42L683.54 830.17" stroke="hsl(228.5, 77.2%, 51.5%)" stroke-width="1.5"></path><path d="M683.54 830.17L683.54 830.17" stroke="hsl(228.5, 77.2%, 51.5%)" stroke-width="1.5"></path><path d="M683.54 830.17L676.19 940.22" stroke="hsl(228.5, 77.2%, 51.5%)" stroke-width="1.5"></path><path d="M683.54 830.17L490.67 820.47" stroke="hsl(228.5, 77.2%, 51.5%)" stroke-width="1.5"></path><path d="M676.19 940.22L676.19 940.22" stroke="hsl(228.5, 77.2%, 51.5%)" stroke-width="1.5"></path><path d="M676.19 940.22L788.48 1003.31" stroke="hsl(228.5, 77.2%, 51.5%)" stroke-width="1.5"></path><path d="M676.19 940.22L490.67 820.47" stroke="hsl(228.5, 77.2%, 51.5%)" stroke-width="1.5"></path><path d="M850.15 530.27L850.15 530.27" stroke="hsl(228.5, 77.2%, 51.5%)" stroke-width="1.5"></path><path d="M850.15 530.27L851.71 642.3" stroke="hsl(228.5, 77.2%, 51.5%)" stroke-width="1.5"></path><path d="M850.15 530.27L986 648.07" stroke="hsl(228.5, 77.2%, 51.5%)" stroke-width="1.5"></path><path d="M850.15 530.27L989.12 357.06" stroke="hsl(228.5, 77.2%, 51.5%)" stroke-width="1.5"></path><path d="M851.71 642.3L851.71 642.3" stroke="hsl(228.5, 77.2%, 51.5%)" stroke-width="1.5"></path><path d="M851.71 642.3L986 648.07" stroke="hsl(228.5, 77.2%, 51.5%)" stroke-width="1.5"></path><path d="M851.71 642.3L668.98 702.42" stroke="hsl(228.5, 77.2%, 51.5%)" stroke-width="1.5"></path><path d="M851.71 642.3L1006.06 790.87" stroke="hsl(228.5, 77.2%, 51.5%)" stroke-width="1.5"></path><path d="M851.71 642.3L683.54 830.17" stroke="hsl(228.5, 77.2%, 51.5%)" stroke-width="1.5"></path><path d="M788.48 1003.31L788.48 1003.31" stroke="hsl(228.5, 77.2%, 51.5%)" stroke-width="1.5"></path><path d="M788.48 1003.31L683.54 830.17" stroke="hsl(228.5, 77.2%, 51.5%)" stroke-width="1.5"></path><path d="M788.48 1003.31L858.04 799.57" stroke="hsl(228.5, 77.2%, 51.5%)" stroke-width="1.5"></path><path d="M989.12 357.06L989.12 357.06" stroke="hsl(228.5, 77.2%, 51.5%)" stroke-width="1.5"></path><path d="M989.12 357.06L1150.16 361.22" stroke="hsl(228.5, 77.2%, 51.5%)" stroke-width="1.5"></path><path d="M989.12 357.06L1130.64 259.09" stroke="hsl(228.5, 77.2%, 51.5%)" stroke-width="1.5"></path><path d="M989.12 357.06L1097.98 541.67" stroke="hsl(228.5, 77.2%, 51.5%)" stroke-width="1.5"></path><path d="M989.12 357.06L1242.46 386.64" stroke="hsl(228.5, 77.2%, 51.5%)" stroke-width="1.5"></path><path d="M989.12 357.06L1252.6 235.99" stroke="hsl(228.5, 77.2%, 51.5%)" stroke-width="1.5"></path><path d="M986 648.07L986 648.07" stroke="hsl(228.5, 77.2%, 51.5%)" stroke-width="1.5"></path><path d="M986 648.07L1097.98 541.67" stroke="hsl(228.5, 77.2%, 51.5%)" stroke-width="1.5"></path><path d="M1130.64 259.09L1130.64 259.09" stroke="hsl(228.5, 77.2%, 51.5%)" stroke-width="1.5"></path><path d="M1130.64 259.09L1150.16 361.22" stroke="hsl(228.5, 77.2%, 51.5%)" stroke-width="1.5"></path><path d="M1130.64 259.09L1252.6 235.99" stroke="hsl(228.5, 77.2%, 51.5%)" stroke-width="1.5"></path><path d="M1130.64 259.09L1242.46 386.64" stroke="hsl(228.5, 77.2%, 51.5%)" stroke-width="1.5"></path><path d="M1150.16 361.22L1150.16 361.22" stroke="hsl(228.5, 77.2%, 51.5%)" stroke-width="1.5"></path><path d="M1150.16 361.22L1242.46 386.64" stroke="hsl(228.5, 77.2%, 51.5%)" stroke-width="1.5"></path><path d="M1150.16 361.22L1252.6 235.99" stroke="hsl(228.5, 77.2%, 51.5%)" stroke-width="1.5"></path><path d="M1150.16 361.22L1097.98 541.67" stroke="hsl(228.5, 77.2%, 51.5%)" stroke-width="1.5"></path><path d="M1150.16 361.22L1280.73 500.78" stroke="hsl(228.5, 77.2%, 51.5%)" stroke-width="1.5"></path><path d="M1097.98 541.67L1097.98 541.67" stroke="hsl(228.5, 77.2%, 51.5%)" stroke-width="1.5"></path><path d="M1097.98 541.67L1143.47 637.81" stroke="hsl(228.5, 77.2%, 51.5%)" stroke-width="1.5"></path><path d="M1143.47 637.81L1143.47 637.81" stroke="hsl(228.5, 77.2%, 51.5%)" stroke-width="1.5"></path><path d="M1143.47 637.81L986 648.07" stroke="hsl(228.5, 77.2%, 51.5%)" stroke-width="1.5"></path><path d="M1143.47 637.81L1280.73 500.78" stroke="hsl(228.5, 77.2%, 51.5%)" stroke-width="1.5"></path><path d="M1143.47 637.81L1270.84 796.14" stroke="hsl(228.5, 77.2%, 51.5%)" stroke-width="1.5"></path><path d="M1143.47 637.81L1006.06 790.87" stroke="hsl(228.5, 77.2%, 51.5%)" stroke-width="1.5"></path><path d="M1107.71 969.64L1107.71 969.64" stroke="hsl(228.5, 77.2%, 51.5%)" stroke-width="1.5"></path><path d="M1107.71 969.64L1285.23 950.42" stroke="hsl(228.5, 77.2%, 51.5%)" stroke-width="1.5"></path><path d="M1107.71 969.64L1006.06 790.87" stroke="hsl(228.5, 77.2%, 51.5%)" stroke-width="1.5"></path><path d="M1107.71 969.64L1270.84 796.14" stroke="hsl(228.5, 77.2%, 51.5%)" stroke-width="1.5"></path><path d="M1256.42 -88.58L1256.42 -88.58" stroke="hsl(228.5, 77.2%, 51.5%)" stroke-width="1.5"></path><path d="M1256.42 -88.58L1421.8 -75.15" stroke="hsl(228.5, 77.2%, 51.5%)" stroke-width="1.5"></path><path d="M1256.42 -88.58L1299.52 111.29" stroke="hsl(228.5, 77.2%, 51.5%)" stroke-width="1.5"></path><path d="M1256.42 -88.58L1461.53 104.17" stroke="hsl(228.5, 77.2%, 51.5%)" stroke-width="1.5"></path><path d="M1256.42 -88.58L1568.51 -70.87" stroke="hsl(228.5, 77.2%, 51.5%)" stroke-width="1.5"></path><path d="M1256.42 -88.58L1252.6 235.99" stroke="hsl(228.5, 77.2%, 51.5%)" stroke-width="1.5"></path><path d="M1252.6 235.99L1252.6 235.99" stroke="hsl(228.5, 77.2%, 51.5%)" stroke-width="1.5"></path><path d="M1252.6 235.99L1242.46 386.64" stroke="hsl(228.5, 77.2%, 51.5%)" stroke-width="1.5"></path><path d="M1242.46 386.64L1242.46 386.64" stroke="hsl(228.5, 77.2%, 51.5%)" stroke-width="1.5"></path><path d="M1242.46 386.64L1280.73 500.78" stroke="hsl(228.5, 77.2%, 51.5%)" stroke-width="1.5"></path><path d="M1242.46 386.64L1097.98 541.67" stroke="hsl(228.5, 77.2%, 51.5%)" stroke-width="1.5"></path><path d="M1242.46 386.64L1454.26 372.3" stroke="hsl(228.5, 77.2%, 51.5%)" stroke-width="1.5"></path><path d="M1280.73 500.78L1280.73 500.78" stroke="hsl(228.5, 77.2%, 51.5%)" stroke-width="1.5"></path><path d="M1280.73 500.78L1426.26 519.71" stroke="hsl(228.5, 77.2%, 51.5%)" stroke-width="1.5"></path><path d="M1280.73 500.78L1097.98 541.67" stroke="hsl(228.5, 77.2%, 51.5%)" stroke-width="1.5"></path><path d="M1270.84 796.14L1270.84 796.14" stroke="hsl(228.5, 77.2%, 51.5%)" stroke-width="1.5"></path><path d="M1421.8 -75.15L1421.8 -75.15" stroke="hsl(228.5, 77.2%, 51.5%)" stroke-width="1.5"></path><path d="M1421.8 -75.15L1568.51 -70.87" stroke="hsl(228.5, 77.2%, 51.5%)" stroke-width="1.5"></path><path d="M1421.8 -75.15L1461.53 104.17" stroke="hsl(228.5, 77.2%, 51.5%)" stroke-width="1.5"></path><path d="M1421.8 -75.15L1299.52 111.29" stroke="hsl(228.5, 77.2%, 51.5%)" stroke-width="1.5"></path><path d="M1421.8 -75.15L1580.58 107.77" stroke="hsl(228.5, 77.2%, 51.5%)" stroke-width="1.5"></path><path d="M1461.53 104.17L1461.53 104.17" stroke="hsl(228.5, 77.2%, 51.5%)" stroke-width="1.5"></path><path d="M1461.53 104.17L1416.34 204.06" stroke="hsl(228.5, 77.2%, 51.5%)" stroke-width="1.5"></path><path d="M1461.53 104.17L1580.58 107.77" stroke="hsl(228.5, 77.2%, 51.5%)" stroke-width="1.5"></path><path d="M1461.53 104.17L1591.04 237.77" stroke="hsl(228.5, 77.2%, 51.5%)" stroke-width="1.5"></path><path d="M1461.53 104.17L1568.51 -70.87" stroke="hsl(228.5, 77.2%, 51.5%)" stroke-width="1.5"></path><path d="M1416.34 204.06L1416.34 204.06" stroke="hsl(228.5, 77.2%, 51.5%)" stroke-width="1.5"></path><path d="M1416.34 204.06L1252.6 235.99" stroke="hsl(228.5, 77.2%, 51.5%)" stroke-width="1.5"></path><path d="M1416.34 204.06L1454.26 372.3" stroke="hsl(228.5, 77.2%, 51.5%)" stroke-width="1.5"></path><path d="M1454.26 372.3L1454.26 372.3" stroke="hsl(228.5, 77.2%, 51.5%)" stroke-width="1.5"></path><path d="M1454.26 372.3L1597.45 409.29" stroke="hsl(228.5, 77.2%, 51.5%)" stroke-width="1.5"></path><path d="M1454.26 372.3L1426.26 519.71" stroke="hsl(228.5, 77.2%, 51.5%)" stroke-width="1.5"></path><path d="M1454.26 372.3L1556.69 507.23" stroke="hsl(228.5, 77.2%, 51.5%)" stroke-width="1.5"></path><path d="M1454.26 372.3L1591.04 237.77" stroke="hsl(228.5, 77.2%, 51.5%)" stroke-width="1.5"></path><path d="M1426.26 519.71L1426.26 519.71" stroke="hsl(228.5, 77.2%, 51.5%)" stroke-width="1.5"></path><path d="M1426.26 519.71L1556.69 507.23" stroke="hsl(228.5, 77.2%, 51.5%)" stroke-width="1.5"></path><path d="M1426.26 519.71L1548.19 642.64" stroke="hsl(228.5, 77.2%, 51.5%)" stroke-width="1.5"></path><path d="M1426.1 696.98L1426.1 696.98" stroke="hsl(228.5, 77.2%, 51.5%)" stroke-width="1.5"></path><path d="M1426.1 696.98L1423.65 826.08" stroke="hsl(228.5, 77.2%, 51.5%)" stroke-width="1.5"></path><path d="M1426.1 696.98L1548.19 642.64" stroke="hsl(228.5, 77.2%, 51.5%)" stroke-width="1.5"></path><path d="M1426.1 696.98L1426.26 519.71" stroke="hsl(228.5, 77.2%, 51.5%)" stroke-width="1.5"></path><path d="M1426.1 696.98L1270.84 796.14" stroke="hsl(228.5, 77.2%, 51.5%)" stroke-width="1.5"></path><path d="M1426.1 696.98L1565.16 818.37" stroke="hsl(228.5, 77.2%, 51.5%)" stroke-width="1.5"></path><path d="M1423.65 826.08L1423.65 826.08" stroke="hsl(228.5, 77.2%, 51.5%)" stroke-width="1.5"></path><path d="M1423.65 826.08L1565.16 818.37" stroke="hsl(228.5, 77.2%, 51.5%)" stroke-width="1.5"></path><path d="M1423.65 826.08L1270.84 796.14" stroke="hsl(228.5, 77.2%, 51.5%)" stroke-width="1.5"></path><path d="M1568.51 -70.87L1568.51 -70.87" stroke="hsl(228.5, 77.2%, 51.5%)" stroke-width="1.5"></path><path d="M1568.51 -70.87L1580.58 107.77" stroke="hsl(228.5, 77.2%, 51.5%)" stroke-width="1.5"></path><path d="M1568.51 -70.87L1591.04 237.77" stroke="hsl(228.5, 77.2%, 51.5%)" stroke-width="1.5"></path><path d="M1580.58 107.77L1580.58 107.77" stroke="hsl(228.5, 77.2%, 51.5%)" stroke-width="1.5"></path><path d="M1597.45 409.29L1597.45 409.29" stroke="hsl(228.5, 77.2%, 51.5%)" stroke-width="1.5"></path><path d="M1597.45 409.29L1556.69 507.23" stroke="hsl(228.5, 77.2%, 51.5%)" stroke-width="1.5"></path><path d="M1597.45 409.29L1426.26 519.71" stroke="hsl(228.5, 77.2%, 51.5%)" stroke-width="1.5"></path><path d="M1597.45 409.29L1548.19 642.64" stroke="hsl(228.5, 77.2%, 51.5%)" stroke-width="1.5"></path><path d="M1597.45 409.29L1416.34 204.06" stroke="hsl(228.5, 77.2%, 51.5%)" stroke-width="1.5"></path><path d="M1556.69 507.23L1556.69 507.23" stroke="hsl(228.5, 77.2%, 51.5%)" stroke-width="1.5"></path><path d="M1548.19 642.64L1548.19 642.64" stroke="hsl(228.5, 77.2%, 51.5%)" stroke-width="1.5"></path><path d="M1548.19 642.64L1556.69 507.23" stroke="hsl(228.5, 77.2%, 51.5%)" stroke-width="1.5"></path><path d="M1565.16 818.37L1565.16 818.37" stroke="hsl(228.5, 77.2%, 51.5%)" stroke-width="1.5"></path><path d="M1565.16 818.37L1579.56 947.48" stroke="hsl(228.5, 77.2%, 51.5%)" stroke-width="1.5"></path><path d="M1565.16 818.37L1548.19 642.64" stroke="hsl(228.5, 77.2%, 51.5%)" stroke-width="1.5"></path><path d="M1565.16 818.37L1391.29 947.53" stroke="hsl(228.5, 77.2%, 51.5%)" stroke-width="1.5"></path><path d="M1579.56 947.48L1579.56 947.48" stroke="hsl(228.5, 77.2%, 51.5%)" stroke-width="1.5"></path><path d="M1579.56 947.48L1423.65 826.08" stroke="hsl(228.5, 77.2%, 51.5%)" stroke-width="1.5"></path><path d="M1579.56 947.48L1426.1 696.98" stroke="hsl(228.5, 77.2%, 51.5%)" stroke-width="1.5"></path><path d="M1579.56 947.48L1285.23 950.42" stroke="hsl(228.5, 77.2%, 51.5%)" stroke-width="1.5"></path><path d="M1579.56 947.48L1548.19 642.64" stroke="hsl(228.5, 77.2%, 51.5%)" stroke-width="1.5"></path><circle r="25" cx="858.04" cy="799.57" fill="url(#SvgjsRadialGradient1019)"></circle><circle r="25" cx="1006.06" cy="790.87" fill="url(#SvgjsRadialGradient1019)"></circle><circle r="25" cx="950.74" cy="998.51" fill="url(#SvgjsRadialGradient1019)"></circle><circle r="25" cx="1133.2" cy="845.8" fill="url(#SvgjsRadialGradient1019)"></circle><circle r="25" cx="1299.52" cy="111.29" fill="url(#SvgjsRadialGradient1019)"></circle><circle r="25" cx="1253.63" cy="672.85" fill="url(#SvgjsRadialGradient1019)"></circle><circle r="25" cx="1285.23" cy="950.42" fill="url(#SvgjsRadialGradient1019)"></circle><circle r="25" cx="1391.29" cy="947.53" fill="url(#SvgjsRadialGradient1019)"></circle><circle r="25" cx="1591.04" cy="237.77" fill="url(#SvgjsRadialGradient1019)"></circle><circle r="5" cx="-98.16" cy="690.47" fill="#8b9ad9"></circle><circle r="5" cx="-103.15" cy="803.69" fill="#8b9ad9"></circle><circle r="5" cx="-93.57" cy="956.53" fill="#8b9ad9"></circle><circle r="5" cx="88.68" cy="861.6" fill="#8b9ad9"></circle><circle r="5" cx="99.01" cy="942.13" fill="#8b9ad9"></circle><circle r="5" cx="192.4" cy="664.91" fill="#8b9ad9"></circle><circle r="5" cx="251.72" cy="833.32" fill="#8b9ad9"></circle><circle r="5" cx="227.36" cy="977.79" fill="#8b9ad9"></circle><circle r="5" cx="395.3" cy="666.17" fill="#8b9ad9"></circle><circle r="5" cx="361.93" cy="989.11" fill="#8b9ad9"></circle><circle r="5" cx="554.1" cy="689.81" fill="#8b9ad9"></circle><circle r="5" cx="490.67" cy="820.47" fill="#8b9ad9"></circle><circle r="5" cx="499.49" cy="999.09" fill="#8b9ad9"></circle><circle r="5" cx="668.98" cy="702.42" fill="#8b9ad9"></circle><circle r="5" cx="683.54" cy="830.17" fill="#8b9ad9"></circle><circle r="5" cx="676.19" cy="940.22" fill="#8b9ad9"></circle><circle r="5" cx="850.15" cy="530.27" fill="#8b9ad9"></circle><circle r="5" cx="851.71" cy="642.3" fill="#8b9ad9"></circle><circle r="5" cx="788.48" cy="1003.31" fill="#8b9ad9"></circle><circle r="5" cx="989.12" cy="357.06" fill="#8b9ad9"></circle><circle r="5" cx="986" cy="648.07" fill="#8b9ad9"></circle><circle r="5" cx="1130.64" cy="259.09" fill="#8b9ad9"></circle><circle r="5" cx="1150.16" cy="361.22" fill="#8b9ad9"></circle><circle r="5" cx="1097.98" cy="541.67" fill="#8b9ad9"></circle><circle r="5" cx="1143.47" cy="637.81" fill="#8b9ad9"></circle><circle r="5" cx="1107.71" cy="969.64" fill="#8b9ad9"></circle><circle r="5" cx="1256.42" cy="-88.58" fill="#8b9ad9"></circle><circle r="5" cx="1252.6" cy="235.99" fill="#8b9ad9"></circle><circle r="5" cx="1242.46" cy="386.64" fill="#8b9ad9"></circle><circle r="5" cx="1280.73" cy="500.78" fill="#8b9ad9"></circle><circle r="5" cx="1270.84" cy="796.14" fill="#8b9ad9"></circle><circle r="5" cx="1421.8" cy="-75.15" fill="#8b9ad9"></circle><circle r="5" cx="1461.53" cy="104.17" fill="#8b9ad9"></circle><circle r="5" cx="1416.34" cy="204.06" fill="#8b9ad9"></circle><circle r="5" cx="1454.26" cy="372.3" fill="#8b9ad9"></circle><circle r="5" cx="1426.26" cy="519.71" fill="#8b9ad9"></circle><circle r="5" cx="1426.1" cy="696.98" fill="#8b9ad9"></circle><circle r="5" cx="1423.65" cy="826.08" fill="#8b9ad9"></circle><circle r="5" cx="1568.51" cy="-70.87" fill="#8b9ad9"></circle><circle r="5" cx="1580.58" cy="107.77" fill="#8b9ad9"></circle><circle r="5" cx="1597.45" cy="409.29" fill="#8b9ad9"></circle><circle r="5" cx="1556.69" cy="507.23" fill="#8b9ad9"></circle><circle r="5" cx="1548.19" cy="642.64" fill="#8b9ad9"></circle><circle r="5" cx="1565.16" cy="818.37" fill="#8b9ad9"></circle><circle r="5" cx="1579.56" cy="947.48" fill="#8b9ad9"></circle></g><defs><mask id="SvgjsMask1017"><rect width="1440" height="800" fill="#ffffff"></rect></mask><linearGradient x1="11.11%" y1="-20%" x2="88.89%" y2="120%" gradientUnits="userSpaceOnUse" id="SvgjsLinearGradient1018"><stop stop-color="#0e2a47" offset="0"></stop><stop stop-color="#00459e" offset="1"></stop></linearGradient><radialGradient id="SvgjsRadialGradient1019"><stop stop-color="#ffffff" offset="0.1"></stop><stop stop-color="#1735b3" offset="0.2"></stop><stop stop-color="rgba(23, 53, 179, 0)" offset="1"></stop></radialGradient></defs></svg>